<svg width="155" height="172" viewBox="0 0 155 172" fill="none" xmlns="http://www.w3.org/2000/svg">
<path d="M128.5 52C142.583 52 154 40.5833 154 26.5C154 12.4167 142.583 1 128.5 1C114.417 1 103 12.4167 103 26.5C103 40.5833 114.417 52 128.5 52Z" fill="black"/>
<path d="M26.5 111.5C40.5833 111.5 52 100.083 52 86C52 71.9167 40.5833 60.5 26.5 60.5C12.4167 60.5 1 71.9167 1 86C1 100.083 12.4167 111.5 26.5 111.5Z" fill="black"/>
<path d="M128.5 171C142.583 171 154 159.583 154 145.5C154 131.417 142.583 120 128.5 120C114.417 120 103 131.417 103 145.5C103 159.583 114.417 171 128.5 171Z" fill="black"/>
<path d="M48.515 98.835L106.57 132.665M106.485 39.335L48.515 73.165M154 26.5C154 40.5833 142.583 52 128.5 52C114.417 52 103 40.5833 103 26.5C103 12.4167 114.417 1 128.5 1C142.583 1 154 12.4167 154 26.5ZM52 86C52 100.083 40.5833 111.5 26.5 111.5C12.4167 111.5 1 100.083 1 86C1 71.9167 12.4167 60.5 26.5 60.5C40.5833 60.5 52 71.9167 52 86ZM154 145.5C154 159.583 142.583 171 128.5 171C114.417 171 103 159.583 103 145.5C103 131.417 114.417 120 128.5 120C142.583 120 154 131.417 154 145.5Z" stroke="#787878" stroke-width="2" stroke-linecap="round" stroke-linejoin="round"/>
</svg>
