<svg width="202" height="202" viewBox="0 0 202 202" fill="none" xmlns="http://www.w3.org/2000/svg">
<path d="M119.333 74.6665V98.2082C119.333 101.954 120.822 105.547 123.47 108.196C126.119 110.845 129.712 112.333 133.458 112.333C137.205 112.333 140.797 110.845 143.446 108.196C146.095 105.547 147.583 101.954 147.583 98.2082V93.4998C147.583 82.8733 143.987 72.5594 137.382 64.2353C130.776 55.9113 121.549 50.0665 111.2 47.6515C100.852 45.2365 89.9907 46.3932 80.3829 50.9335C70.7752 55.4739 62.9859 63.1309 58.2816 72.6595C53.5773 82.188 52.2347 93.0278 54.4721 103.416C56.7095 113.804 62.3953 123.13 70.605 129.878C78.8148 136.625 89.0655 140.396 99.6905 140.579C110.315 140.762 120.69 137.345 129.127 130.884M15 197H187C192.523 197 197 192.523 197 187V15C197 9.47715 192.523 5 187 5H15C9.47715 5 5 9.47715 5 15V187C5 192.523 9.47715 197 15 197ZM119.333 93.4998C119.333 103.901 110.901 112.333 100.5 112.333C90.0987 112.333 81.6667 103.901 81.6667 93.4998C81.6667 83.0985 90.0987 74.6665 100.5 74.6665C110.901 74.6665 119.333 83.0985 119.333 93.4998Z" stroke="#0F343F" stroke-width="10" stroke-linecap="round" stroke-linejoin="round"/>
</svg>
