<svg width="202" height="202" viewBox="0 0 202 202" fill="none" xmlns="http://www.w3.org/2000/svg">
<path d="M155.833 68.5002C155.833 62.9085 151.258 58.3335 145.667 58.3335H64.3334C58.7417 58.3335 54.1667 62.9085 54.1667 68.5002M155.833 68.5002V129.5C155.833 135.092 151.258 139.667 145.667 139.667H64.3334C58.7417 139.667 54.1667 135.092 54.1667 129.5V68.5002M155.833 68.5002L105 104.083L54.1667 68.5002M5 15C5 9.47715 9.47715 5 15 5H187C192.523 5 197 9.47715 197 15V187C197 192.523 192.523 197 187 197H15C9.47715 197 5 192.523 5 187V15Z" stroke="#0F343F" stroke-width="10" stroke-linecap="round" stroke-linejoin="round"/>
</svg>
